<?xml version="1.0" encoding="UTF-8" standalone="no"?>
<!-- Created with Inkscape (http://www.inkscape.org/) -->

<svg
   xmlns:dc="http://purl.org/dc/elements/1.1/"
   xmlns:cc="http://creativecommons.org/ns#"
   xmlns:rdf="http://www.w3.org/1999/02/22-rdf-syntax-ns#"
   xmlns:svg="http://www.w3.org/2000/svg"
   xmlns="http://www.w3.org/2000/svg"
   xmlns:xlink="http://www.w3.org/1999/xlink"
   xmlns:sodipodi="http://sodipodi.sourceforge.net/DTD/sodipodi-0.dtd"
   xmlns:inkscape="http://www.inkscape.org/namespaces/inkscape"
   width="86"
   height="86"
   id="svg2"
   version="1.1"
   inkscape:version="0.92.4 5da689c313, 2019-01-14"
   sodipodi:docname="harbour-barcode.svg"
   inkscape:export-filename="C:\Users\Stephan\Desktop\double-shape.png"
   inkscape:export-xdpi="90"
   inkscape:export-ydpi="90">
  <defs
     id="defs4">
    <linearGradient
       inkscape:collect="always"
       id="linearGradient7552">
      <stop
         style="stop-color:#ffffff;stop-opacity:1;"
         offset="0"
         id="stop7548" />
      <stop
         style="stop-color:#ececec;stop-opacity:1"
         offset="1"
         id="stop7550" />
    </linearGradient>
    <linearGradient
       inkscape:collect="always"
       id="linearGradient7110">
      <stop
         style="stop-color:#ff6700;stop-opacity:1;"
         offset="0"
         id="stop7106" />
      <stop
         style="stop-color:#ff4f00;stop-opacity:1"
         offset="1"
         id="stop7108" />
    </linearGradient>
    <linearGradient
       inkscape:collect="always"
       xlink:href="#linearGradient7110"
       id="linearGradient7112"
       x1="41.868313"
       y1="14.317527"
       x2="41.868313"
       y2="89.514786"
       gradientUnits="userSpaceOnUse" />
    <linearGradient
       inkscape:collect="always"
       xlink:href="#linearGradient7552"
       id="linearGradient7554"
       x1="46.447266"
       y1="13.463172"
       x2="46.447266"
       y2="71.537109"
       gradientUnits="userSpaceOnUse"
       gradientTransform="translate(0,4.211914)" />
  </defs>
  <sodipodi:namedview
     id="base"
     pagecolor="#ffffff"
     bordercolor="#666666"
     borderopacity="1.0"
     inkscape:pageopacity="0.0"
     inkscape:pageshadow="2"
     inkscape:zoom="10.127907"
     inkscape:cx="26.06659"
     inkscape:cy="43"
     inkscape:document-units="px"
     inkscape:current-layer="layer2"
     showgrid="false"
     inkscape:window-width="1559"
     inkscape:window-height="1080"
     inkscape:window-x="236"
     inkscape:window-y="9"
     inkscape:window-maximized="0"
     inkscape:snap-bbox="true"
     inkscape:snap-global="true"
     width="86px"
     inkscape:snap-grids="false"
     showguides="false">
    <inkscape:grid
       type="xygrid"
       id="grid2985"
       empspacing="5"
       visible="true"
       enabled="true"
       snapvisiblegridlinesonly="true" />
  </sodipodi:namedview>
  <metadata
     id="metadata7">
    <rdf:RDF>
      <cc:Work
         rdf:about="">
        <dc:format>image/svg+xml</dc:format>
        <dc:type
           rdf:resource="http://purl.org/dc/dcmitype/StillImage" />
        <dc:title />
      </cc:Work>
    </rdf:RDF>
  </metadata>
  <g
     inkscape:groupmode="layer"
     id="layer2"
     inkscape:label="Ebene"
     style="display:inline"
     transform="translate(0,-4)">
    <path
       id="path4225"
       d="m 85.699999,88.277 c 0,0.786 -0.637,1.423 -1.423,1.423 H 1.7230007 C 0.93700075,89.7 0.30000075,89.063 0.30000075,88.277 V 5.7229999 c 0,-0.786 0.637,-1.423 1.42299995,-1.423 H 84.275999 c 0.786,0 1.423,0.637 1.423,1.423 V 88.277 z"
       inkscape:connector-curvature="0"
       style="fill:url(#linearGradient7112);fill-opacity:1" />
    <g
       style="display:none"
       id="Layer_2"
       display="none"
       transform="translate(93.624831,4.1784118)" />
    <path
       id="path7546"
       d="m 14.25,18.838953 v 2.300782 11.498047 2.300781 h 13.800781 2.298828 V 32.637782 21.139735 18.838953 h -2.298828 -11.5 z m 18.400391,0 v 2.300782 h 2.300781 v -2.300782 z m 2.300781,2.300782 v 2.298828 H 37.25 41.849609 44.150391 V 21.139735 H 41.849609 37.25 Z M 48.75,18.838953 v 2.300782 h 4.599609 v -2.300782 z m 6.900391,0 v 2.300782 11.498047 2.300781 H 69.451172 71.75 V 32.637782 21.139735 18.838953 h -2.298828 -11.5 z m -39.09961,2.300782 h 11.5 v 11.498047 h -11.5 z m 41.400391,0 h 11.5 v 11.498047 h -11.5 z m -39.09961,2.298828 v 6.90039 H 25.75 v -6.90039 z m 27.597657,0 v 2.300781 H 48.75 v -2.300781 z m 4.599609,0 v 4.599609 h -6.898437 v 0.002 H 41.851562 V 25.739391 H 39.550781 V 28.040172 30.339 H 34.951172 V 28.038219 H 32.650391 V 30.339 32.639782 34.93861 h 2.300781 V 32.639735 H 37.25 v 2.298828 h -2.298828 v 2.300781 H 37.25 v 0.599609 1.699219 h -2.298828 v 2.300781 H 37.25 39.550781 v -2.300781 -1.699219 -0.599609 h 2.298828 v 2.298828 h 2.300782 v -2.298828 h 2.296875 v 2.298828 h 2.300781 0.002 v 2.300781 h 6.900391 v -2.300781 h -4.60161 V 37.237391 34.938563 H 48.75 v -2.298828 h 2.298828 v 2.298828 h 2.300781 v -4.59961 h -2.298828 v -2.300781 h 2.298828 v -4.599609 z m 4.601563,18.40039 v 2.298829 h 2.298828 v 2.300781 h -2.298828 v 2.300781 2.298828 h -4.601563 v -2.300781 h -6.898437 v 2.300781 H 48.75 v 2.300781 h -4.599609 v 2.298829 h 6.898437 v -2.298829 h 2.300781 v 2.298829 h -2.300781 v 2.300781 h -4.599609 v 2.298828 H 48.75 v 2.300781 h 2.298828 V 64.837 65.987391 67.137782 H 48.75 V 64.837 62.538172 H 46.449219 V 64.837 h -2.298828 v 6.900391 h 4.597656 v 2.298828 H 46.447266 V 76.337 h 2.300781 2.300781 V 74.036219 71.737391 H 48.75 v -2.298828 h 4.599609 v -2.300781 h 2.300782 v 2.300781 2.300781 h 2.298828 v 2.298828 H 60.25 v -2.298828 -2.300781 -0.002 H 57.951172 V 67.137782 H 60.25 v 2.298828 h 2.298828 v -2.298828 h 6.900391 V 64.837 h -6.900391 v -2.298828 h 6.900391 V 64.837 H 71.75 v -2.298828 -4.599609 -2.300781 h -2.300781 v 2.300781 2.298828 h -4.59961 V 57.938563 H 62.548828 V 55.637782 H 60.25 V 53.338953 H 55.650391 V 51.040125 H 57.951172 60.25 V 48.739344 H 57.951172 V 46.438563 H 60.25 v -2.300781 -4.59961 h 2.298828 v -2.298828 h -4.599609 v 2.298828 2.300781 z M 60.25,46.438563 v 2.298828 h 6.898438 v 0.002 h 2.300781 V 44.137782 H 71.75 v -2.298829 h -2.300781 -2.300781 v 2.298829 2.300781 z m 9.199219,9.199219 V 53.338953 H 71.75 v -2.300781 h -2.300781 -2.300781 v 2.300781 2.298829 z m 0,11.5 v 4.599609 2.300781 H 62.548828 V 76.337 H 69.449219 71.75 V 74.038172 71.737391 67.137782 Z M 44.150391,64.837 V 62.538172 H 41.849609 V 64.837 Z m -2.300782,0 h -2.298828 v 2.300782 h 2.298828 z m -2.298828,2.300782 H 34.951172 V 64.837 h 4.599609 v -2.298828 h -4.599609 v -2.300781 h 4.599609 v 2.300781 h 2.298828 v -4.599609 h -2.298828 -4.599609 v -11.5 h -2.300781 v -2.300781 h -2.300782 v 2.300781 h -2.298828 v -2.300781 h -4.599609 v -2.298829 h -2.300781 v -2.300781 h 2.300781 v 2.300781 H 25.75 v -2.300781 h 4.599609 v 2.300781 h 2.300782 V 39.538172 37.239344 H 30.349609 25.75 23.451172 16.550781 v 2.298828 4.59961 h 4.59961 v 2.300781 h -4.59961 v 2.298828 H 14.25 v 4.599609 2.300782 2.300781 h 2.300781 V 55.637782 53.337 51.038172 h 2.300781 v -2.300781 h 4.59961 v 4.601562 h -2.298828 v -2.300781 h -2.300782 v 2.300781 2.300782 h 2.298829 v 2.298828 H 25.75 h 2.300781 2.298828 v -2.300781 h -2.298828 v -2.298829 h 4.59961 v 6.898438 2.300781 2.298828 2.300782 2.300781 4.599609 H 34.951172 37.25 V 76.337 h 6.900391 v -2.298828 h -4.59961 v -2.300781 h -4.599609 v -2.298828 h 4.599609 v 2.298828 h 2.298828 V 69.43661 h -2.298828 z m 2.298828,-9.199219 h 2.300782 v -2.300781 h -2.300782 z m 2.300782,4.599609 h 2.298828 v -2.300781 h -2.298828 z m 0,-9.199219 v -2.300781 h -4.59961 v 2.300781 z m -4.59961,0 H 37.25 v 2.298829 h 2.300781 z m 4.59961,-4.601562 v -2.298828 h -4.59961 V 44.137782 H 37.25 v 4.599609 h 2.300781 z m 6.898437,0 h 2.300781 V 44.137782 H 51.048828 Z M 34.951172,28.038172 H 37.25 V 25.739344 H 34.951172 Z M 60.25,23.438563 v 6.90039 h 6.900391 v -6.90039 z m -20.699219,6.902344 h 2.300781 2.298829 v 2.296875 h -2.300782 v 2.300781 h -2.298828 v -2.298828 -1.701172 z m 4.59961,2.298828 h 2.298828 v 2.298828 h 2.298828 v 2.298828 h -2.298828 v -2.298828 h -2.298828 z m 25.298828,4.599609 v 2.298828 H 71.75 v -2.298828 z m -6.900391,4.599609 v 2.298829 h 2.300781 v -2.298829 z m -16.099609,2.298829 v 2.300781 H 48.75 v -2.300781 z m -18.398438,4.599609 h 2.298828 v 2.300781 h -2.298828 z m 25.298828,9.201172 H 60.25 v 2.298828 2.300781 2.298828 h -6.900391 v -2.298828 -1.15039 -1.150391 z M 14.25,60.237391 V 62.538172 74.036219 76.337 h 13.800781 2.298828 V 74.036219 62.538172 60.237391 h -2.298828 -11.5 z m 41.400391,0 v 2.300781 h 2.298828 v -2.300781 z m -39.09961,2.300781 h 11.5 v 11.498047 h -11.5 z M 18.851562,64.837 v 6.900391 H 25.75 V 64.837 Z"
       style="opacity:1;fill:#000000;fill-opacity:0.17000002;stroke:none;stroke-width:4.68403959;stroke-linecap:round;stroke-linejoin:miter;stroke-miterlimit:4;stroke-dasharray:none;stroke-dashoffset:0;stroke-opacity:1"
       inkscape:connector-curvature="0" />
    <path
       style="opacity:1;fill:url(#linearGradient7554);fill-opacity:1;stroke:none;stroke-width:4.68403959;stroke-linecap:round;stroke-linejoin:miter;stroke-miterlimit:4;stroke-dasharray:none;stroke-dashoffset:0;stroke-opacity:1"
       d="m 14.25,18.250976 v 2.300782 11.498047 2.300781 h 13.800781 2.298828 V 32.049805 20.551759 18.250976 h -2.298828 -11.5 z m 18.400391,0 v 2.300782 h 2.300781 v -2.300782 z m 2.300781,2.300782 v 2.298828 H 37.25 41.849609 44.150391 V 20.551759 H 41.849609 37.25 Z M 48.75,18.250976 v 2.300782 h 4.599609 v -2.300782 z m 6.900391,0 v 2.300782 11.498047 2.300781 H 69.451172 71.75 V 32.049805 20.551759 18.250976 h -2.298828 -11.5 z m -39.09961,2.300782 h 11.5 v 11.498047 h -11.5 z m 41.400391,0 h 11.5 v 11.498047 h -11.5 z m -39.09961,2.298828 v 6.90039 H 25.75 v -6.90039 z m 27.597657,0 v 2.300781 H 48.75 v -2.300781 z m 4.599609,0 v 4.599609 h -6.898437 v 0.002 h -2.298829 v -2.300781 h -2.300781 v 2.300781 2.298828 h -4.599609 v -2.300781 h -2.300781 v 2.300781 2.300782 2.298828 h 2.300781 V 32.051758 H 37.25 v 2.298828 h -2.298828 v 2.300781 H 37.25 v 0.599609 1.699219 h -2.298828 v 2.300781 H 37.25 39.550781 v -2.300781 -1.699219 -0.599609 h 2.298828 v 2.298828 h 2.300782 v -2.298828 h 2.296875 v 2.298828 h 2.300781 0.002 v 2.300781 h 6.900391 v -2.300781 h -4.60161 V 36.649414 34.350586 H 48.75 v -2.298828 h 2.298828 v 2.298828 h 2.300781 v -4.59961 h -2.298828 v -2.300781 h 2.298828 v -4.599609 z m 4.601563,18.40039 v 2.298829 h 2.298828 v 2.300781 h -2.298828 v 2.300781 2.298828 h -4.601563 v -2.300781 h -6.898437 v 2.300781 H 48.75 v 2.300781 h -4.599609 v 2.298829 h 6.898437 v -2.298829 h 2.300781 v 2.298829 h -2.300781 v 2.300781 h -4.599609 v 2.298828 H 48.75 v 2.300781 h 2.298828 v 2.298828 1.150391 1.150391 H 48.75 v -2.300782 -2.298828 h -2.300781 v 2.298828 h -2.298828 v 6.900391 h 4.597656 v 2.298828 h -2.300781 v 2.300781 h 2.300781 2.300781 v -2.30078 -2.298828 H 48.75 v -2.298828 h 4.599609 v -2.300781 h 2.300782 v 2.300781 2.300781 h 2.298828 v 2.298828 H 60.25 v -2.298828 -2.300781 -0.002 H 57.951172 V 66.549806 H 60.25 v 2.298828 h 2.298828 v -2.298828 h 6.900391 v -2.300782 h -6.900391 v -2.298828 h 6.900391 v 2.298828 H 71.75 v -2.298828 -4.599609 -2.300781 h -2.300781 v 2.300781 2.298828 h -4.59961 V 57.350586 H 62.548828 V 55.049805 H 60.25 V 52.750976 H 55.650391 V 50.452148 H 57.951172 60.25 V 48.151367 H 57.951172 V 45.850586 H 60.25 v -2.300781 -4.59961 h 2.298828 v -2.298828 h -4.599609 v 2.298828 2.300781 z M 60.25,45.850586 v 2.298828 h 6.898438 v 0.002 h 2.300781 v -4.60161 H 71.75 v -2.298829 h -2.300781 -2.300781 v 2.298829 2.300781 z m 9.199219,9.199219 V 52.750976 H 71.75 v -2.300781 h -2.300781 -2.300781 v 2.300781 2.298829 z m 0,11.5 v 4.599609 2.300781 h -6.900391 v 2.298828 H 69.449219 71.75 V 73.450196 71.149415 66.549806 Z M 44.150391,64.249024 v -2.298828 h -2.300782 v 2.298828 z m -2.300782,0 h -2.298828 v 2.300782 h 2.298828 z m -2.298828,2.300782 h -4.599609 v -2.300782 h 4.599609 v -2.298828 h -4.599609 v -2.300781 h 4.599609 v 2.300781 h 2.298828 v -4.599609 h -2.298828 -4.599609 v -11.5 h -2.300781 v -2.300781 h -2.300782 v 2.300781 h -2.298828 v -2.300781 h -4.599609 v -2.298829 h -2.300781 v -2.300781 h 2.300781 v 2.300781 H 25.75 v -2.300781 h 4.599609 v 2.300781 h 2.300782 V 38.950195 36.651367 H 30.349609 25.75 23.451172 16.550781 v 2.298828 4.59961 h 4.59961 v 2.300781 h -4.59961 v 2.298828 H 14.25 v 4.599609 2.300782 2.300781 h 2.300781 v -2.300781 -2.300782 -2.298828 h 2.300781 v -2.300781 h 4.59961 v 4.601562 h -2.298828 v -2.300781 h -2.300782 v 2.300781 2.300782 h 2.298829 v 2.298828 H 25.75 h 2.300781 2.298828 v -2.300781 h -2.298828 v -2.298829 h 4.59961 v 6.898438 2.300781 2.298828 2.300782 2.300781 4.599609 H 34.951172 37.25 v 2.298828 h 6.900391 v -2.298828 h -4.59961 v -2.300781 h -4.599609 v -2.298828 h 4.599609 v 2.298828 h 2.298828 v -2.300781 h -2.298828 z m 2.298828,-9.199219 h 2.300782 v -2.300781 h -2.300782 z m 2.300782,4.599609 h 2.298828 v -2.300781 h -2.298828 z m 0,-9.199219 v -2.300781 h -4.59961 v 2.300781 z m -4.59961,0 H 37.25 v 2.298829 h 2.300781 z m 4.59961,-4.601562 v -2.298828 h -4.59961 V 43.549805 H 37.25 v 4.599609 h 2.300781 z m 6.898437,0 h 2.300781 v -4.59961 H 51.048828 Z M 34.951172,27.450195 H 37.25 V 25.151368 H 34.951172 Z M 60.25,22.850587 v 6.900389 h 6.900391 v -6.90039 z m -20.699219,6.902344 h 2.300781 2.298829 v 2.296875 h -2.300782 v 2.300781 h -2.298828 v -2.298828 -1.701172 z m 4.59961,2.298827 h 2.298828 v 2.298828 h 2.298828 v 2.298828 h -2.298828 v -2.298828 h -2.298828 z m 25.298828,4.599609 v 2.298828 H 71.75 v -2.298828 z m -6.900391,4.599609 v 2.298829 h 2.300781 v -2.298829 z m -16.099609,2.298829 v 2.300781 H 48.75 v -2.300781 z m -18.398438,4.599609 h 2.298828 v 2.300781 h -2.298828 z m 25.298828,9.201172 H 60.25 v 2.298828 2.300781 2.298828 h -6.900391 v -2.298828 -1.15039 -1.150391 z M 14.25,59.649414 v 2.300781 11.498047 2.300781 h 13.800781 2.298828 v -2.30078 -11.498048 -2.300781 h -2.298828 -11.5 z m 41.400391,0 v 2.300781 h 2.298828 v -2.300781 z m -39.09961,2.300781 h 11.5 v 11.498047 h -11.5 z m 2.300781,2.298828 v 6.900391 H 25.75 v -6.900391 z"
       id="rect7114"
       inkscape:connector-curvature="0" />
  </g>
</svg>
